<?xml version="1.0" encoding="UTF-8" standalone="no"?>
<svg width="50px" height="23px" viewBox="0 0 50 23" version="1.1" xmlns="http://www.w3.org/2000/svg" xmlns:xlink="http://www.w3.org/1999/xlink">
    <!-- Generator: sketchtool 41.1 (35376) - http://www.bohemiancoding.com/sketch -->
    <title>7FD9B91E-18DA-483B-A278-090D641DBBA9</title>
    <desc>Created with sketchtool.</desc>
    <defs></defs>
    <g id="Page-1" stroke="none" stroke-width="1" fill="none" fill-rule="evenodd">
        <g id="ET_Portfolio_Page_1440" transform="translate(-29.000000, -28.000000)">
            <g id="Navigation" transform="translate(0.000000, -1.000000)">
                <g id="icon/back_to-portfolio" transform="translate(30.000000, 29.000000)">
                    <g>
                        <polygon id="Stroke-2068" fill="#101820" points="34.5 6.5 40.5 6.5 40.5 0.5 34.5 0.5"></polygon>
                        <polygon id="Stroke-2069" fill="#101820" points="26.5 6.5 32.5 6.5 32.5 0.5 26.5 0.5"></polygon>
                        <polygon id="Stroke-2070" fill="#101820" points="42.5 6.5 48.5 6.5 48.5 0.5 42.5 0.5"></polygon>
                        <polygon id="Stroke-2071" fill="#101820" points="34.5 14.5 40.5 14.5 40.5 8.5 34.5 8.5"></polygon>
                        <polygon id="Stroke-2072" fill="#101820" points="26.5 14.5 32.5 14.5 32.5 8.5 26.5 8.5"></polygon>
                        <polygon id="Stroke-2073" fill="#101820" points="42.5 14.5 48.5 14.5 48.5 8.5 42.5 8.5"></polygon>
                        <polygon id="Stroke-2074" fill="#101820" points="34.5 22.5 40.5 22.5 40.5 16.5 34.5 16.5"></polygon>
                        <polygon id="Stroke-2075" fill="#101820" points="26.5 22.5 32.5 22.5 32.5 16.5 26.5 16.5"></polygon>
                        <polygon id="Stroke-2076" fill="#101820" points="42.5 22.5 48.5 22.5 48.5 16.5 42.5 16.5"></polygon>
                        <polyline id="Stroke-565" stroke="#000000" stroke-width="1.5" stroke-linecap="round" stroke-linejoin="round" transform="translate(5.416667, 11.583333) scale(-1, 1) translate(-5.416667, -11.583333) " points="0 21.1666667 10.8333333 11.5833333 0 2"></polyline>
                    </g>
                </g>
            </g>
        </g>
    </g>
</svg>