<?xml version="1.0" encoding="UTF-8" standalone="no"?>
<svg width="20px" height="19px" viewBox="0 0 20 19" version="1.1" xmlns="http://www.w3.org/2000/svg" xmlns:xlink="http://www.w3.org/1999/xlink">
    <!-- Generator: sketchtool 41.1 (35376) - http://www.bohemiancoding.com/sketch -->
    <title>1B0EDA21-CD13-4671-80C6-151577ED0BA6</title>
    <desc>Created with sketchtool.</desc>
    <defs></defs>
    <g id="ET.com" stroke="none" stroke-width="1" fill="none" fill-rule="evenodd">
        <g id="ET_1440" transform="translate(-609.000000, -4419.000000)" fill="#FFFFFF">
            <g id="Group-20" transform="translate(0.000000, 3481.000000)">
                <g id="Group-19" transform="translate(581.000000, 912.000000)">
                    <g id="Group-9">
                        <g id="icon/linkedin" transform="translate(28.000000, 26.000000)">
                            <path d="M13.3418938,10.4040115 C12.2908641,10.4040115 11.4395777,11.2597899 11.4395777,12.3142311 L11.4395777,19 L6.68378751,19 C6.68378751,19 6.73990584,7.53868195 6.68378751,6.58357211 L11.4395777,6.58357211 L11.4395777,8.00191022 C11.4395777,8.00191022 12.9119703,6.62368672 15.1861892,6.62368672 C18.0025681,6.62368672 20,8.67048711 20,12.6446991 L20,19 L15.2442098,19 L15.2442098,12.3142311 C15.2442098,11.2597899 14.3929234,10.4040115 13.3418938,10.4040115 L13.3418938,10.4040115 Z M2.39406477,4.67335244 L2.36648119,4.67335244 C0.9292814,4.67335244 0,3.54441261 0,2.30372493 C0,1.03438395 0.957816141,0 2.42259951,0 C3.88833405,0 4.78908071,1.0678128 4.81761545,2.33715377 C4.81761545,3.57879656 3.88833405,4.67335244 2.39406477,4.67335244 L2.39406477,4.67335244 Z M4.78147144,19 L0.0256812669,19 L0.0256812669,6.58357211 L4.78147144,6.58357211 L4.78147144,19 Z" id="Stroke-69"></path>
                        </g>
                    </g>
                </g>
            </g>
        </g>
    </g>
</svg>