<svg width="32px" height="32px" viewBox="0 0 32 32" version="1.1" xmlns="http://www.w3.org/2000/svg" xmlns:xlink="http://www.w3.org/1999/xlink">
   <!-- Generator: Sketch 41.1 (35376) - http://www.bohemiancoding.com/sketch -->
   <desc>Created with Sketch.</desc>
   <defs></defs>
   <circle id="Oval" stroke="none" fill="#101820 " fill-rule="evenodd" cx="16" cy="16" r="16"></circle>
   <path d="M23.59,15.32 C23.7500008,15.4600007 23.8399999,15.624999 23.86,15.815 C23.8800001,16.005001 23.8400005,16.1899991 23.74,16.37 C23.339998,17.1900041 22.8050033,17.9949961 22.135,18.785 C21.4649967,19.5750039 20.7150041,20.2849968 19.885,20.915 C19.0549959,21.5450031 18.1700047,22.0499981 17.23,22.43 C16.2899953,22.8100019 15.3600046,23 14.44,23 C13.6799962,23 12.9400036,22.9100009 12.22,22.73 C11.4999964,22.5499991 10.8800026,22.1400032 10.36,21.5 C9.9399979,20.9799974 9.6600007,20.4050031 9.52,19.775 C9.3799993,19.1449969 9.3499996,18.4950034 9.43,17.825 C9.5100004,17.1549967 9.67499875,16.4800034 9.925,15.8 C10.1750012,15.1199966 10.4749983,14.4650032 10.825,13.835 C11.1750017,13.2049969 11.5599979,12.6150028 11.98,12.065 C12.4000021,11.5149973 12.809998,11.0300021 13.21,10.61 C13.9700038,9.8499962 14.7449961,9.2400023 15.535,8.78 C16.3250039,8.3199977 17.0599966,8.0700002 17.74,8.03 C18.1800022,8.0099999 18.6249977,8.10499895 19.075,8.315 C19.5250023,8.52500105 19.8299992,8.8699976 19.99,9.35 C20.2500013,9.950003 20.280001,10.6699958 20.08,11.51 C19.879999,12.3500042 19.480003,13.2199955 18.88,14.12 C18.3599974,14.8800038 17.6800042,15.6249963 16.84,16.355 C15.9999958,17.0850037 15.0300055,17.6799977 13.93,18.14 C13.8299995,18.940004 13.9299985,19.639997 14.23,20.24 C14.5300015,20.840003 15.0199966,21.14 15.7,21.14 C16.1600023,21.14 16.6699972,21.0300011 17.23,20.81 C17.7900028,20.5899989 18.374997,20.2500023 18.985,19.79 C19.5950031,19.3299977 20.204997,18.7450035 20.815,18.035 C21.4250031,17.3249965 21.9999973,16.470005 22.54,15.47 C22.6400005,15.2899991 22.7999989,15.1900001 23.02,15.17 C23.2400011,15.1499999 23.4299992,15.1999994 23.59,15.32 Z M17.62,13.25 C18.020002,12.6699971 18.2999992,12.1450024 18.46,11.675 C18.6200008,11.2049976 18.7,10.8000017 18.7,10.46 C17.899996,11.0200028 17.105004,11.7949951 16.315,12.785 C15.5249961,13.7750049 14.8900024,14.9299934 14.41,16.25 C15.1100035,15.849998 15.7299973,15.3850027 16.27,14.855 C16.8100027,14.3249974 17.2599982,13.7900027 17.62,13.25 Z" id="e" stroke="none" fill="#FFFFFF " fill-rule="evenodd"></path>
</svg>