<?xml version="1.0" encoding="UTF-8" standalone="no"?>
<svg width="18px" height="31px" viewBox="0 0 18 31" version="1.1" xmlns="http://www.w3.org/2000/svg" xmlns:xlink="http://www.w3.org/1999/xlink">
    <!-- Generator: sketchtool 41.1 (35376) - http://www.bohemiancoding.com/sketch -->
    <title>D0C7295A-E59E-4121-A811-965021366B62</title>
    <desc>Created with sketchtool.</desc>
    <defs></defs>
    <g id="ET.com" stroke="none" stroke-width="1" fill="none" fill-rule="evenodd" stroke-linejoin="round">
        <g id="ET_1440" transform="translate(-809.000000, -4417.000000)" stroke="#FFFFFF">
            <g id="Group-20" transform="translate(0.000000, 3481.000000)">
                <g id="Group-19" transform="translate(581.000000, 912.000000)">
                    <g id="icon/phone" transform="translate(229.000000, 25.000000)">
                        <path d="M16.25,26.25 C16.25,27.63 15.13125,28.75 13.75,28.75 L2.5,28.75 C1.11875,28.75 0,27.63 0,26.25 L0,2.5 C0,1.12 1.11875,0 2.5,0 L13.75,0 C15.13125,0 16.25,1.12 16.25,2.5 L16.25,26.25 L16.25,26.25 Z" id="Stroke-5155" stroke-linecap="round"></path>
                        <path d="M8.625,26.25 C8.28,26.25 8,25.97 8,25.625 C8,25.28 8.28,25 8.625,25 C8.97,25 9.25,25.28 9.25,25.625 C9.25,25.97 8.97,26.25 8.625,26.25 L8.625,26.25 Z" id="Stroke-5159"></path>
                    </g>
                </g>
            </g>
        </g>
    </g>
</svg>